<svg width="31" height="45" viewBox="0 0 31 45" fill="none" xmlns="http://www.w3.org/2000/svg">
<circle cx="15.25" cy="22" r="15" fill="#8CBAD0"/>
<path d="M5.17953 45C3.56879 45 2.42785 44.5694 1.75671 43.7081C1.08557 42.799 0.75 41.6507 0.75 40.2632C0.75 38.8756 1.01846 37.2966 1.55537 35.5263C2.13702 33.7081 2.85291 31.9139 3.70302 30.1435C4.95582 27.5598 6.32047 24.7847 7.79698 21.8182C9.31823 18.8517 11.1079 15.8134 13.1661 12.7034C13.8372 11.6986 14.6426 10.5024 15.5822 9.11483C16.5666 7.67943 17.6628 6.26794 18.8708 4.88038C20.1236 3.49282 21.4659 2.3445 22.8977 1.43541C24.3294 0.47847 25.8059 0 27.3272 0C28.58 0 29.4525 0.287082 29.9446 0.861246C30.4815 1.43541 30.75 2.20096 30.75 3.1579C30.75 4.06699 30.5487 5.11962 30.146 6.31579C29.7433 7.51196 29.2064 8.75598 28.5352 10.0478C27.5509 11.9617 26.1862 14.0431 24.4413 16.2919C22.7411 18.4928 20.8171 20.6938 18.6695 22.8947C16.5218 25.0478 14.307 27.0096 12.0252 28.7799C9.74329 30.5024 7.5509 31.8182 5.44799 32.7273C4.86633 34.1148 4.39653 35.4545 4.03859 36.7464C3.72539 38.0383 3.56879 39.1388 3.56879 40.0478C3.56879 41.6268 4.15045 42.4163 5.31376 42.4163C6.83501 42.4163 8.26678 41.8421 9.60906 40.6938C10.9513 39.4976 12.1147 38.0144 13.099 36.244C14.1281 34.4258 14.8663 32.6316 15.3138 30.8612C15.1795 30.5742 15.1124 30.2871 15.1124 30C15.1124 29.4258 15.3138 28.9234 15.7164 28.4928C16.1639 28.0622 16.6113 27.8469 17.0587 27.8469C17.4614 27.8469 17.797 28.0383 18.0654 28.4211C18.3786 28.8038 18.4905 29.4737 18.401 30.4306C18.6695 30.622 18.8932 30.7177 19.0721 30.7177C19.2064 30.7655 19.3406 30.8134 19.4748 30.8612C19.6091 30.8612 19.7433 30.8612 19.8775 30.8612C20.9066 30.8612 21.8909 30.5263 22.8305 29.8565C23.8149 29.1866 24.486 28.6842 24.844 28.3493C25.3361 27.8708 25.7836 27.6316 26.1862 27.6316C26.6337 27.6316 26.8574 27.8947 26.8574 28.4211C26.8574 28.756 26.7455 29.1388 26.5218 29.5694C26.3428 29.9522 26.0073 30.3828 25.5151 30.8612C23.8596 32.488 21.7567 33.3014 19.2064 33.3014C18.8484 33.3014 18.5129 33.2775 18.1997 33.2297C17.9312 33.134 17.6628 33.0383 17.3943 32.9426C16.7679 34.8086 15.8507 36.6746 14.6426 38.5407C13.4793 40.4067 12.0923 41.9617 10.4815 43.2057C8.87081 44.4019 7.10347 45 5.17953 45ZM14.1728 16.2919C13.3675 17.488 12.5173 18.8517 11.6225 20.3828C10.7724 21.9139 9.94463 23.4689 9.13926 25.0478C8.33389 26.5789 7.64038 27.9665 7.05872 29.2105C8.89318 28.0622 10.75 26.6746 12.6292 25.0478C14.5531 23.4211 16.3876 21.6746 18.1325 19.8086C19.8775 17.8947 21.4659 15.9569 22.8977 13.9952C24.3294 11.9856 25.5151 10.0957 26.4547 8.32536C27.5285 6.31579 28.0654 4.78469 28.0654 3.73206C28.0654 2.91866 27.7075 2.51196 26.9916 2.51196C25.9178 2.51196 24.7545 3.0622 23.5017 4.16268C22.2936 5.21531 21.0856 6.5311 19.8775 8.11005C18.6695 9.64115 17.5509 11.1723 16.5218 12.7034C15.5375 14.1866 14.7545 15.3828 14.1728 16.2919Z" fill="#263238"/>
</svg>
