<svg width="35" height="35" viewBox="0 0 35 35" fill="none" xmlns="http://www.w3.org/2000/svg">
<rect width="35" height="35" rx="5" fill="#FF8787"/>
<g clip-path="url(#clip0_11_89)">
<path d="M9.16667 27.5C8.72222 27.5 8.33333 27.3333 8 27C7.66667 26.6667 7.5 26.2778 7.5 25.8333V9.16667C7.5 8.72222 7.66667 8.33333 8 8C8.33333 7.66667 8.72222 7.5 9.16667 7.5H17.25V9.16667H9.16667V25.8333H17.25V27.5H9.16667ZM22.6667 22.3611L21.4722 21.1667L24.3056 18.3333H14.5833V16.6667H24.25L21.4167 13.8333L22.6111 12.6389L27.5 17.5278L22.6667 22.3611Z" fill="#FA0000"/>
</g>
<defs>
<clipPath id="clip0_11_89">
<rect width="20" height="20" fill="white" transform="translate(7.5 7.5)"/>
</clipPath>
</defs>
</svg>
